<svg enable-background="new 0 0 128 128" height="128" viewBox="0 0 128 128" width="128" xmlns="http://www.w3.org/2000/svg"><ellipse cx="68.596" cy="110.802" fill="#b8cbcd" rx="47.667" ry="11.813"/><path d="m96.263 48.615-6 58c0 5.522-4.774 10-23 10s-23-4.478-23-10l-7-58" fill="#ffbab0"/><path d="m67.263 119.615c-6.399 0-25.807 0-25.999-12.808l-6.98-57.833c-.198-1.645.974-3.139 2.619-3.338 1.642-.194 3.139.974 3.338 2.619l7 58c.014.119.021.239.021.359 0 4.645 6.729 7 20 7s20-2.355 20-7c0-.104.005-.206.016-.309l6-58c.171-1.648 1.641-2.85 3.292-2.675 1.648.17 2.846 1.645 2.675 3.292l-5.985 57.856c-.164 12.836-19.593 12.837-25.997 12.837z" fill="#783741"/><path d="m95.263 46.615c0 7-21 11-28 11-11 0-28.75-3-28.75-8 0-15.464 13.286-31 28.75-31s28 12.536 28 28z" fill="#fff"/><path d="m66.263 59.615c-19.14 0-32-4.822-32-12 0-1.104.896-2 2-2s2 .896 2 2c0 3.227 8.899 8 28 8s28-4.773 28-8c0-1.104.896-2 2-2s2 .896 2 2c0 7.177-12.859 12-32 12z" fill="#783741"/><path d="m66.263 79.615c-17.346 0-29-4.822-29-12 0-1.104.896-2 2-2s2 .896 2 2c0 3.227 7.945 8 25 8s25-4.773 25-8c0-1.104.896-2 2-2s2 .896 2 2c0 7.177-11.654 12-29 12z" fill="#783741"/><path d="m41.608 84.615c0 5.522 8.252 10 24.655 10s27-4.478 27-10l-1 8c0 5.522-9.597 9-26 9s-24.375-3.728-24.375-9.25z" fill="#fff"/><g fill="#783741"><path d="m66.263 103.615c-22.948 0-26.375-7.049-26.375-11.25l-.263-7.247c-.011-.167-.017-.334-.017-.503 0-1.091.874-1.979 1.964-2 1.097-.02 1.996.838 2.035 1.928l.013.356c.317 3.846 7.431 7.716 22.644 7.716 14.832 0 23.848-3.755 24.9-7.326l.115-.922c.131-1.048 1.04-1.826 2.109-1.748 1.054.065 1.875.939 1.875 1.996 0 .476-.054.953-.162 1.42l-.839 6.715c-.13 6.908-10.318 10.865-27.999 10.865zm-22.393-11.785.017.463c.001 3.577 5.879 7.322 22.376 7.322 16.49 0 24-3.629 24-7 0-.083.005-.166.016-.248l.079-.631c-5.011 3.071-13.542 4.879-24.094 4.879-10.216 0-17.953-1.712-22.394-4.785z"/><path d="m75.264 24.5c-.292 0-.589-.043-.883-.134-1.583-.487-2.472-2.166-1.985-3.75l4-13c.387-1.259 1.787-2.116 3.104-2.116h20c1.657 0 2.763 1.341 2.763 2.998s-1.343 3-3 3h-17.784l-3.349 10.882c-.396 1.291-1.583 2.12-2.866 2.12z"/><path d="m96.263 51.615c-1.657 0-3-1.343-3-3 0-14.336-12.112-26-27-26-14.58 0-26 11.42-26 26 0 1.657-1.343 3-3 3s-3-1.343-3-3c0-17.944 14.056-32 32-32 18.196 0 33 14.355 33 32 0 1.657-1.343 3-3 3z"/><path d="m92.263 54.615c-1.657 0-3-1.343-3-3 0-15.178-11.907-28-26-28-1.657 0-3-1.343-3-3s1.343-3 3-3c17.346 0 32 15.57 32 34 0 1.657-1.343 3-3 3z" opacity=".2"/><path d="m70.265 40.615c-.161 0-.324-.02-.486-.06-1.072-.268-1.723-1.354-1.456-2.425l5-20c.268-1.072 1.354-1.724 2.425-1.456 1.072.268 1.723 1.354 1.456 2.425l-5 20c-.228.91-1.043 1.516-1.939 1.516z"/></g><circle cx="67.263" cy="76.615" fill="#fff" r="8"/><path d="m67.263 86.615c-5.514 0-10-4.486-10-10s4.486-10 10-10 10 4.486 10 10-4.485 10-10 10zm0-16c-3.309 0-6 2.691-6 6s2.691 6 6 6 6-2.691 6-6-2.691-6-6-6z" fill="#783741"/><path d="m67.263 119.615c-6.399 0-25.807 0-25.999-12.808l-6.98-57.833c-.198-1.645.974-3.139 2.619-3.338 1.642-.194 3.139.974 3.338 2.619l7 58c.014.119.021.239.021.359 0 4.645 6.729 7 20 7s20-2.355 20-7c0-.104.005-.206.016-.309l6-58c.171-1.648 1.641-2.85 3.292-2.675 1.648.17 2.846 1.645 2.675 3.292l-5.985 57.856c-.164 12.836-19.593 12.837-25.997 12.837z" fill="#783741"/></svg>